<svg width="98" height="102" viewBox="0 0 98 102" fill="none" xmlns="http://www.w3.org/2000/svg">
<path d="M40.4655 5.05543C44.7816 -0.535609 53.2184 -0.535608 57.5345 5.05543V5.05543C60.2481 8.57061 64.8394 10.0624 69.101 8.81361V8.81361C75.8791 6.82732 82.7046 11.7863 82.9101 18.8465V18.8465C83.0393 23.2854 85.8769 27.191 90.0586 28.6856V28.6856C96.7097 31.0627 99.3168 39.0865 95.3332 44.9191V44.9191C92.8286 48.5862 92.8286 53.4138 95.3332 57.0809V57.0809C99.3168 62.9135 96.7097 70.9373 90.0586 73.3144V73.3144C85.8769 74.809 83.0393 78.7146 82.9101 83.1535V83.1535C82.7046 90.2137 75.8791 95.1727 69.101 93.1864V93.1864C64.8394 91.9376 60.2481 93.4294 57.5345 96.9446V96.9446C53.2184 102.536 44.7816 102.536 40.4655 96.9446V96.9446C37.7519 93.4294 33.1606 91.9376 28.899 93.1864V93.1864C22.1209 95.1727 15.2954 90.2137 15.0899 83.1535V83.1535C14.9607 78.7146 12.1231 74.809 7.94142 73.3144V73.3144C1.29027 70.9373 -1.31682 62.9135 2.66681 57.0809V57.0809C5.17139 53.4138 5.17139 48.5862 2.66681 44.9191V44.9191C-1.31682 39.0865 1.29027 31.0627 7.94142 28.6856V28.6856C12.1231 27.191 14.9607 23.2854 15.0899 18.8465V18.8465C15.2954 11.7863 22.1209 6.82732 28.899 8.81361V8.81361C33.1606 10.0624 37.7519 8.57061 40.4655 5.05543V5.05543Z" fill="#C3D9FA"/>
</svg>
